<svg xmlns="http://www.w3.org/2000/svg" xmlns:xlink="http://www.w3.org/1999/xlink" viewBox="0 0 608.92 608.92"><defs><style>.cls-1{fill:url(#linear-gradient);}.cls-2{fill:url(#linear-gradient-2);}.cls-3{fill:#fff;}.cls-4{fill:url(#linear-gradient-3);}.cls-5{fill:url(#linear-gradient-4);}.cls-6{fill:url(#linear-gradient-5);}</style><linearGradient id="linear-gradient" x1="63.61" y1="506.52" x2="545.95" y2="101.88" gradientUnits="userSpaceOnUse"><stop offset="0" stop-color="#fd267a"/><stop offset="0.5" stop-color="#fe4358"/><stop offset="0.94" stop-color="#ff6036"/></linearGradient><linearGradient id="linear-gradient-2" x1="2627.91" y1="360.41" x2="1857.89" y2="365.8" gradientTransform="translate(2549.85 654.71) rotate(180)" gradientUnits="userSpaceOnUse"><stop offset="0" stop-color="#fd267a"/><stop offset="0.52" stop-color="#fe4358"/><stop offset="1" stop-color="#ff6036"/></linearGradient><linearGradient id="linear-gradient-3" x1="2276.84" y1="362.63" x2="2067.86" y2="364.92" gradientTransform="translate(2549.85 654.71) rotate(180)" gradientUnits="userSpaceOnUse"><stop offset="0" stop-color="#fd267a"/><stop offset="0.5" stop-color="#fe4358"/><stop offset="0.89" stop-color="#ff6036"/></linearGradient><linearGradient id="linear-gradient-4" x1="-22.08" y1="456.26" x2="517.23" y2="13.67" gradientUnits="userSpaceOnUse"><stop offset="0" stop-color="#fd267a"/><stop offset="1" stop-color="#fe4358"/></linearGradient><linearGradient id="linear-gradient-5" x1="-7.46" y1="475.94" x2="245.69" y2="259.99" gradientUnits="userSpaceOnUse"><stop offset="0" stop-color="#fd267a"/><stop offset="0.5" stop-color="#fe4358"/></linearGradient></defs><g id="Layer_2" data-name="Layer 2"><g id="Layer_1-2" data-name="Layer 1"><rect class="cls-1" width="608.92" height="608.92" rx="266.64"/><path class="cls-2" d="M195.47,229.58l47.19-27.31L428.22,94.87c46.75-27.05,105.25,6.67,105.25,60.69l0,269.9c0,54.07-58.58,87.81-105.34,60.65L195.38,350.92C148.8,323.86,148.85,256.57,195.47,229.58Z"/><path class="cls-3" d="M496.67,376.75l0-172.47c0-50.81-55-82.54-99-57.09L248.91,233.27c-43.86,25.39-43.91,88.7-.09,114.15l148.75,86.39C441.55,459.35,496.68,427.61,496.67,376.75Z"/><path class="cls-4" d="M451.86,339.6l0-98c0-30.83-33.37-50.08-60-34.63l-84.43,48.91c-26.56,15.39-26.6,53.73-.07,69.18l84.38,49.12C418.4,389.67,451.85,370.45,451.86,339.6Z"/><path class="cls-5" d="M396.47,365.4l-47.18,27.3L163.72,500.11c-46.75,27-105.24-6.67-105.25-60.69l0-269.9c0-54.07,58.59-87.81,105.35-60.65L396.56,244.06C443.15,271.11,443.09,338.41,396.47,365.4Z"/><path class="cls-3" d="M95.27,218.23l0,172.47c0,50.81,55,82.54,99,57.09L343,361.71c43.86-25.39,43.91-88.7.08-114.15L194.38,161.17C150.39,135.63,95.27,167.37,95.27,218.23Z"/><path class="cls-6" d="M140.08,255.38l0,98c0,30.83,33.38,50.08,60.05,34.63l84.43-48.91c26.56-15.39,26.6-53.73.07-69.18L200.2,220.83C173.55,205.31,140.1,224.53,140.08,255.38Z"/></g></g></svg>